<?xml version="1.0" encoding="utf-8"?>
<!-- Generator: Adobe Illustrator 25.2.1, SVG Export Plug-In . SVG Version: 6.00 Build 0)  -->
<svg version="1.1" id="Capa_1" xmlns="http://www.w3.org/2000/svg" xmlns:xlink="http://www.w3.org/1999/xlink" x="0px" y="0px"
	 viewBox="0 0 200 200" style="enable-background:new 0 0 200 200;" xml:space="preserve">
<g>
	<path d="M49.2,81.84c-8.98,3.36-17.65,3.07-26.39,1.38c0-0.45-0.1-0.83,0.01-0.91c7.6-5.62,10.49-13.29,11.02-22.59
		c0.56-9.76,5.26-18.1,11.26-25.7c1.69-2.14,3.3-1.21,5.12-0.34c19.42,9.29,36.97,21.35,52.81,35.89
		c24.16,22.18,42.24,48.34,51.86,79.96c0.77,2.54,1.72,4.99,4.98,4.1c3.09-0.84,2.98-3.56,2.72-6.1
		c-3.19-31.62-15.8-59.31-35.32-84.06c-12.12-15.36-26.54-28.28-42.47-39.57c-0.99-0.7-1.95-1.44-3.81-2.81
		c10.97-0.96,20.34,0.41,28.95,5.23c5.1,2.86,9.82,6.37,14.73,9.58c2.94,1.92,5.81,3.97,8.86,5.71c8.16,4.64,16.68,5.39,25.52,1.66
		c0.26,0.25,0.51,0.51,0.77,0.76c-1.81,3.1-3.61,6.2-5.67,9.74c23.23,13.85,33.36,35.22,34.86,62c-8.72-0.39-17.25-4.01-24.78,0.59
		c1.89,7.32,4.27,14.09,5.33,21.07c2.3,15.17,2.82,30.35-4.12,44.73c-2.44,5.06-5.55,9.65-9.71,12.86c-4-5.57-7.22-11.49-11.8-16.05
		c-4.72-4.7-10.38-8.79-16.27-11.92c-14.91-7.93-26.25-19.04-33.57-34.26c-0.33-0.68-0.79-1.3-1.61-2.64
		c-4.51,8.88-10.42,15.98-18.15,21.43c-7.64,5.39-16.05,8.94-25.81,10.89c0.69-5.09,1.27-9.8,1.98-14.49
		c1.13-7.51,0.71-14.64-3.36-21.46c-2.58-4.32-4.7-9.06-6.12-13.87c-2.76-9.37-0.37-17.99,5.3-25.78c0.84-1.16,1.7-2.31,2.52-3.48
		C48.96,83.18,48.95,82.89,49.2,81.84z"/>
	<path d="M158.28,143.6c-5.05-10.28-9.94-22.55-16.74-33.65c-23.59-38.52-57.01-65.79-98.24-83.9c-7.7-3.38-14.82-2.21-22.36-0.4
		c-5.74,1.38-8.4-0.76-8.96-6.45c-0.81-8.12,4.33-14.14,12.54-14.84c9.91-0.85,19.28,1.52,27.98,5.77
		c49.09,23.96,85.12,59.8,101.28,113.22C155.95,130.52,157.06,138.01,158.28,143.6z"/>
</g>
</svg>
